<svg width="25" height="24" viewBox="0 0 25 24" fill="none" xmlns="http://www.w3.org/2000/svg">
<g id="trash-2">
<path id="Icon" d="M3.6875 6H5.6875M5.6875 6H21.6875M5.6875 6V20C5.6875 20.5304 5.89821 21.0391 6.27329 21.4142C6.64836 21.7893 7.15707 22 7.6875 22H17.6875C18.2179 22 18.7266 21.7893 19.1017 21.4142C19.4768 21.0391 19.6875 20.5304 19.6875 20V6H5.6875ZM8.6875 6V4C8.6875 3.46957 8.89821 2.96086 9.27329 2.58579C9.64836 2.21071 10.1571 2 10.6875 2H14.6875C15.2179 2 15.7266 2.21071 16.1017 2.58579C16.4768 2.96086 16.6875 3.46957 16.6875 4V6M10.6875 11V17M14.6875 11V17" stroke="#101828" stroke-width="2" stroke-linecap="round" stroke-linejoin="round"/>
</g>
</svg>
