<svg width="18" height="17" viewBox="0 0 18 17" fill="none" xmlns="http://www.w3.org/2000/svg">
<path d="M2.4125 15.2125L4.9525 14.365L5.41 14.5875C6.46875 15.1012 7.67875 15.375 9 15.375C13.37 15.375 16.5 12.2525 16.5 8.5C16.5 4.73375 13.3925 1.625 9 1.625C4.6075 1.625 1.5 4.73375 1.5 8.5C1.50739 9.94128 1.98196 11.3413 2.8525 12.49L3.275 13.0525L2.4125 15.2113V15.2125ZM1.52875 16.825C1.41563 16.8629 1.29403 16.8676 1.17831 16.8386C1.06259 16.8097 0.957585 16.7481 0.875696 16.6614C0.793808 16.5746 0.738458 16.4663 0.716184 16.3491C0.693911 16.2319 0.705645 16.1107 0.75 16L1.85375 13.2413C0.820226 11.876 0.257477 10.2123 0.25 8.5C0.25 4.3575 3.6025 0.375 9 0.375C14.3975 0.375 17.75 4.3575 17.75 8.5C17.75 12.6425 14.3625 16.625 9 16.625C7.44375 16.625 6.05375 16.29 4.865 15.7125L1.5275 16.825H1.52875Z" fill="#344054"/>
</svg>
