<svg width="22" height="22" viewBox="0 0 22 22" fill="none" xmlns="http://www.w3.org/2000/svg">
<g id="Icon">
<path id="Icon_2" d="M16.0137 1.82843C16.2763 1.56578 16.5881 1.35744 16.9313 1.2153C17.2744 1.07316 17.6422 1 18.0137 1C18.3851 1 18.7529 1.07316 19.0961 1.2153C19.4392 1.35744 19.751 1.56578 20.0137 1.82843C20.2763 2.09107 20.4847 2.40287 20.6268 2.74603C20.7689 3.0892 20.8421 3.45699 20.8421 3.82843C20.8421 4.19986 20.7689 4.56766 20.6268 4.91082C20.4847 5.25398 20.2763 5.56578 20.0137 5.82843L6.51367 19.3284L1.01367 20.8284L2.51367 15.3284L16.0137 1.82843Z" stroke="#101828" stroke-width="2" stroke-linecap="round" stroke-linejoin="round"/>
</g>
</svg>
